<svg id="Capa_1" enable-background="new 0 0 512 512" height="512" viewBox="0 0 512 512" width="512" xmlns="http://www.w3.org/2000/svg"><g><path d="m434.555 504.507h-357.11c-16.552 0-29.971-13.418-29.971-29.971v-325.927h417.051v325.928c0 16.552-13.418 29.97-29.97 29.97z" fill="#f5f8f9"/><g fill="#8ac9fe"><path d="m234.976 188.252h39.961v39.961h-39.961z"/><path d="m307.882 188.252h39.961v39.961h-39.961z"/><path d="m380.787 188.252h39.961v39.961h-39.961z"/><path d="m89.165 260.554h39.961v39.961h-39.961z"/><path d="m162.07 260.554h39.961v39.961h-39.961z"/><path d="m234.976 260.554h39.961v39.961h-39.961z"/><path d="m307.882 260.554h39.961v39.961h-39.961z"/><path d="m380.787 260.554h39.961v39.961h-39.961z"/><path d="m89.165 332.856h39.961v39.961h-39.961z"/><path d="m162.07 332.856h39.961v39.961h-39.961z"/><path d="m234.976 332.856h39.961v39.961h-39.961z"/><path d="m307.882 332.856h39.961v39.961h-39.961z"/><path d="m380.787 332.856h39.961v39.961h-39.961z"/><path d="m234.976 405.158h39.961v39.961h-39.961z"/></g><path d="m464.525 148.752h-417.05v-76.872c0-11.046 8.954-20 20-20h377.051c11.046 0 20 8.954 20 20v76.872z" fill="#f07281"/><path d="m464.526 118.784v29.971h-417.052v-76.895c0-11.035 8.946-19.98 19.98-19.98h49.951v36.934c0 16.552 13.418 29.971 29.971 29.971h317.15z" fill="#eb5569"/><path d="m89.163 332.855h28.242v39.961h-28.242z" fill="#60b7ff"/><path d="m147.376 504.507h-69.932c-16.554 0-29.971-13.417-29.971-29.971v-325.931h69.932v325.932c0 16.553 13.417 29.97 29.971 29.97z" fill="#e8edf2"/><path d="m89.163 405.154h28.242v39.961h-28.242z" fill="#eb5569"/><path d="m89.163 260.556h28.242v39.961h-28.242z" fill="#60b7ff"/><path d="m89.163 260.556h28.242v39.961h-28.242z" fill="#60b7ff"/><path d="m89.163 332.855h28.242v39.961h-28.242z" fill="#60b7ff"/><path d="m89.165 405.158h39.961v39.961h-39.961z" fill="#f07281"/><path d="m89.163 405.154h28.242v39.961h-28.242z" fill="#eb5569"/><path d="m162.07 405.158h39.961v39.961h-39.961z" fill="#f07281"/><g><path d="m343.59 497h-266.14c-12.39 0-22.47-10.08-22.47-22.47v-248.87c0-4.143-3.358-7.5-7.5-7.5s-7.5 3.357-7.5 7.5v248.87c0 20.661 16.809 37.47 37.47 37.47h266.14c4.142 0 7.5-3.357 7.5-7.5s-3.358-7.5-7.5-7.5z"/><path d="m444.52 44.39h-23.611v-17.157c0-15.016-12.217-27.233-27.233-27.233s-27.233 12.217-27.233 27.233v17.157h-65.353c-4.142 0-7.5 3.357-7.5 7.5s3.358 7.5 7.5 7.5h72.137c.236.022.474.036.716.036s.48-.014.716-.036h31.25v3.958c0 6.745-5.488 12.233-12.233 12.233h-19.733c-4.142 0-7.5 3.357-7.5 7.5s3.358 7.5 7.5 7.5h19.733c15.016 0 27.233-12.217 27.233-27.233v-3.958h23.611c6.893 0 12.5 5.607 12.5 12.5v69.221h-402.04v-69.221c0-6.893 5.607-12.5 12.5-12.5h30.395c.236.022.474.036.716.036s.48-.014.716-.036h31.25v3.958c0 6.745-5.488 12.233-12.233 12.233h-19.733c-4.142 0-7.5 3.357-7.5 7.5s3.358 7.5 7.5 7.5h19.733c15.016 0 27.233-12.217 27.233-27.233v-3.958h122.843c4.142 0 7.5-3.357 7.5-7.5s-3.358-7.5-7.5-7.5h-122.843v-17.157c0-15.016-12.217-27.233-27.233-27.233-15.017 0-27.233 12.217-27.233 27.233v17.157h-23.611c-15.164 0-27.5 12.337-27.5 27.5v121.08c0 4.143 3.358 7.5 7.5 7.5s7.5-3.357 7.5-7.5v-36.71h402.04v318.27c0 12.39-10.08 22.47-22.47 22.47h-58.27c-4.142 0-7.5 3.357-7.5 7.5s3.358 7.5 7.5 7.5h58.27c20.661 0 37.47-16.809 37.47-37.47v-402.64c0-15.163-12.336-27.5-27.5-27.5zm-63.077 0v-17.157c0-6.745 5.488-12.233 12.233-12.233s12.233 5.488 12.233 12.233v17.157zm-275.352-17.157c0-6.745 5.488-12.233 12.233-12.233s12.233 5.488 12.233 12.233v17.157h-24.466z"/><path d="m234.977 235.714h39.96c4.142 0 7.5-3.357 7.5-7.5v-39.96c0-4.143-3.358-7.5-7.5-7.5h-39.96c-4.142 0-7.5 3.357-7.5 7.5v39.96c0 4.142 3.357 7.5 7.5 7.5zm7.5-39.96h24.96v24.96h-24.96z"/><path d="m347.84 180.754h-39.96c-4.142 0-7.5 3.357-7.5 7.5v39.96c0 4.143 3.358 7.5 7.5 7.5h39.96c4.142 0 7.5-3.357 7.5-7.5v-39.96c0-4.143-3.358-7.5-7.5-7.5zm-7.5 39.96h-24.96v-24.96h24.96z"/><path d="m380.784 235.714h39.959c4.142 0 7.5-3.357 7.5-7.5v-39.96c0-4.143-3.358-7.5-7.5-7.5h-39.959c-4.142 0-7.5 3.357-7.5 7.5v39.96c0 4.142 3.358 7.5 7.5 7.5zm7.5-39.96h24.959v24.96h-24.959z"/><path d="m89.17 308.014h39.959c4.142 0 7.5-3.357 7.5-7.5v-39.96c0-4.143-3.358-7.5-7.5-7.5h-39.959c-4.142 0-7.5 3.357-7.5 7.5v39.96c0 4.142 3.358 7.5 7.5 7.5zm7.5-39.96h24.959v24.96h-24.959z"/><path d="m162.073 308.014h39.96c4.142 0 7.5-3.357 7.5-7.5v-39.96c0-4.143-3.358-7.5-7.5-7.5h-39.96c-4.142 0-7.5 3.357-7.5 7.5v39.96c0 4.142 3.358 7.5 7.5 7.5zm7.5-39.96h24.96v24.96h-24.96z"/><path d="m227.477 300.514c0 4.143 3.358 7.5 7.5 7.5h39.96c4.142 0 7.5-3.357 7.5-7.5v-39.96c0-4.143-3.358-7.5-7.5-7.5h-39.96c-4.142 0-7.5 3.357-7.5 7.5zm15-32.46h24.96v24.96h-24.96z"/><path d="m347.84 253.054h-39.96c-4.142 0-7.5 3.357-7.5 7.5v39.96c0 4.143 3.358 7.5 7.5 7.5h39.96c4.142 0 7.5-3.357 7.5-7.5v-39.96c0-4.143-3.358-7.5-7.5-7.5zm-7.5 39.96h-24.96v-24.96h24.96z"/><path d="m373.284 300.514c0 4.143 3.358 7.5 7.5 7.5h39.959c4.142 0 7.5-3.357 7.5-7.5v-39.96c0-4.143-3.358-7.5-7.5-7.5h-39.959c-4.142 0-7.5 3.357-7.5 7.5zm15-32.46h24.959v24.96h-24.959z"/><path d="m81.67 372.813c0 4.143 3.358 7.5 7.5 7.5h39.959c4.142 0 7.5-3.357 7.5-7.5v-39.96c0-4.143-3.358-7.5-7.5-7.5h-39.959c-4.142 0-7.5 3.357-7.5 7.5zm15-32.459h24.959v24.96h-24.959z"/><path d="m154.573 372.813c0 4.143 3.358 7.5 7.5 7.5h39.96c4.142 0 7.5-3.357 7.5-7.5v-39.96c0-4.143-3.358-7.5-7.5-7.5h-39.96c-4.142 0-7.5 3.357-7.5 7.5zm15-32.459h24.96v24.96h-24.96z"/><path d="m227.477 372.813c0 4.143 3.358 7.5 7.5 7.5h39.96c4.142 0 7.5-3.357 7.5-7.5v-39.96c0-4.143-3.358-7.5-7.5-7.5h-39.96c-4.142 0-7.5 3.357-7.5 7.5zm15-32.459h24.96v24.96h-24.96z"/><path d="m347.84 325.354h-39.96c-4.142 0-7.5 3.357-7.5 7.5v39.96c0 4.143 3.358 7.5 7.5 7.5h39.96c4.142 0 7.5-3.357 7.5-7.5v-39.96c0-4.143-3.358-7.5-7.5-7.5zm-7.5 39.959h-24.96v-24.96h24.96z"/><path d="m373.284 372.813c0 4.143 3.358 7.5 7.5 7.5h39.959c4.142 0 7.5-3.357 7.5-7.5v-39.96c0-4.143-3.358-7.5-7.5-7.5h-39.959c-4.142 0-7.5 3.357-7.5 7.5zm15-32.459h24.959v24.96h-24.959z"/><path d="m81.67 445.113c0 4.143 3.358 7.5 7.5 7.5h39.959c4.142 0 7.5-3.357 7.5-7.5v-39.96c0-4.143-3.358-7.5-7.5-7.5h-39.959c-4.142 0-7.5 3.357-7.5 7.5zm15-32.46h24.959v24.96h-24.959z"/><path d="m154.573 445.113c0 4.143 3.358 7.5 7.5 7.5h39.96c4.142 0 7.5-3.357 7.5-7.5v-39.96c0-4.143-3.358-7.5-7.5-7.5h-39.96c-4.142 0-7.5 3.357-7.5 7.5zm15-32.46h24.96v24.96h-24.96z"/><path d="m227.477 445.113c0 4.143 3.358 7.5 7.5 7.5h39.96c4.142 0 7.5-3.357 7.5-7.5v-39.96c0-4.143-3.358-7.5-7.5-7.5h-39.96c-4.142 0-7.5 3.357-7.5 7.5zm15-32.46h24.96v24.96h-24.96z"/></g></g></svg>