<svg id="Capa_1" enable-background="new 0 0 512 512" height="512" viewBox="0 0 512 512" width="512" xmlns="http://www.w3.org/2000/svg"><g><g><g><g><g><path d="m375.629 504.5h-224.258c-16.569 0-30-13.431-30-30v-437c0-16.569 13.431-30 30-30h224.259c16.569 0 30 13.431 30 30v437c-.001 16.569-13.432 30-30.001 30z" fill="#d8ecfe"/><path d="m375.629 7.5h-34.842c16.569 0 30 13.431 30 30v437c0 16.569-13.431 30-30 30h34.842c16.569 0 30-13.431 30-30v-437c0-16.569-13.431-30-30-30z" fill="#c4e2ff"/></g><path d="m311.596 47.128h-96.191c-5.523 0-10-4.477-10-10v-29.628h116.191v29.628c0 5.523-4.478 10-10 10z" fill="#3f6e90"/></g></g><g><path d="m214.926 262.169h-30.535c-2.761 0-5 2.239-5 5v15.657c0 3.993-4.451 6.375-7.774 4.16l-19.707-23.138c-1.643-1.095-3.573-1.68-5.547-1.68h-78.863c-16.569 0-30-13.431-30-30v-110.04c0-16.569 13.431-30 30-30h147.426c16.569 0 30 13.431 30 30v110.041c0 16.568-13.432 30-30 30z" fill="#f58a97"/><g><path d="m214.926 92.128h-30c16.568 0 30 13.431 30 30v110.041c0 16.569-13.432 30-30 30h30c16.568 0 30-13.431 30-30v-110.041c0-16.569-13.432-30-30-30z" fill="#f07281"/></g><g><path d="m112.015 146.771c0-2.237 2.42-3.634 4.356-2.516l52.589 30.377c1.936 1.118 1.936 3.914 0 5.032l-52.589 30.377c-1.936 1.118-4.356-.28-4.356-2.516z" fill="#fff"/></g></g><g><path d="m297.074 433.834h30.535c2.761 0 5 2.239 5 5v15.657c0 3.993 4.451 6.375 7.773 4.16l19.707-23.138c1.643-1.095 3.573-1.68 5.547-1.68h78.864c16.569 0 30-13.431 30-30v-110.04c0-16.569-13.431-30-30-30h-147.426c-16.569 0-30 13.431-30 30v110.041c0 16.569 13.432 30 30 30z" fill="#fddf80"/><g><path d="m444.5 263.793h-30c16.569 0 30 13.431 30 30v110.041c0 16.569-13.431 30-30 30h30c16.569 0 30-13.431 30-30v-110.041c0-16.568-13.431-30-30-30z" fill="#f9d070"/></g><g><path d="m425.95 391.262h-5.386l-49.777-15-49.777 15h-5.386c-5.259 0-9.522-4.263-9.522-9.522v-71.029c0-5.259 4.263-9.522 9.522-9.522h110.326c5.259 0 9.522 4.263 9.522 9.522v71.029c0 5.259-4.263 9.522-9.522 9.522z" fill="#fff"/><g><path d="m356.718 391.262 28.8-31.436c1.905-2.079 5.188-2.057 7.064.048l27.982 31.388z" fill="#8bd8a5"/><path d="m321.01 391.262 28.467-38.833c1.918-2.616 5.832-2.59 7.716.05l27.664 38.783z" fill="#aee49e"/></g></g></g></g><path d="m109.719 137.759c-3.21 1.853-5.204 5.306-5.204 9.013v60.754c0 3.706 1.994 7.159 5.203 9.012s7.196 1.852 10.404-.002l52.588-30.376c3.208-1.853 5.201-5.306 5.201-9.011s-1.993-7.158-5.201-9.011l-52.587-30.376c-3.209-1.854-7.195-1.856-10.404-.003zm9.796 61.805v-44.831l38.806 22.416zm281.535 137.552c4.142 0 7.5-3.358 7.5-7.5s-3.358-7.5-7.5-7.5-7.5 3.358-7.5 7.5 3.358 7.5 7.5 7.5zm43.45-80.823h-31.37v-218.793c0-20.678-16.822-37.5-37.5-37.5h-224.26c-20.678 0-37.5 16.822-37.5 37.5v47.128h-46.37c-20.678 0-37.5 16.822-37.5 37.5v110.041c0 20.678 16.822 37.5 37.5 37.5h46.37v96.953c0 4.142 3.358 7.5 7.5 7.5s7.5-3.358 7.5-7.5v-96.953c.752.044 17.571-.121 18.244.115l18.793 22.065c3.394 3.88 9.95 4.369 14.381 1.998 4.072-2.179 6.602-6.402 6.602-11.021v-13.157h28.035c20.678 0 37.5-16.822 37.5-37.5v-110.041c0-20.678-16.822-37.5-37.5-37.5h-86.055v-47.128c0-12.407 10.093-22.5 22.5-22.5h46.534v22.128c0 9.649 7.851 17.5 17.5 17.5h96.191c9.649 0 17.5-7.851 17.5-17.5v-22.128h46.534c12.406 0 22.5 10.093 22.5 22.5v218.793h-38.089c-4.143 0-7.5 3.358-7.5 7.5s3.357 7.5 7.5 7.5h84.46c12.406 0 22.5 10.093 22.5 22.5v110.041c0 12.407-10.094 22.5-22.5 22.5h-78.863c-3.803.028-8.651 1.323-11.257 4.316l-14.271 16.756v-8.572c0-6.893-5.607-12.5-12.5-12.5h-30.535c-12.406 0-22.5-10.093-22.5-22.5v-110.041c0-12.407 10.094-22.5 22.5-22.5h27.967c4.143 0 7.5-3.358 7.5-7.5s-3.357-7.5-7.5-7.5h-27.967c-20.678 0-37.5 16.822-37.5 37.5v110.041c0 20.678 16.822 37.5 37.5 37.5h28.035v13.158c0 4.619 2.529 8.841 6.602 11.021 4.519 2.419 10.877 1.991 14.382-1.998l18.794-22.066c.834-.231 32.385-.035 33.243-.115v33.166c0 12.407-10.094 22.5-22.5 22.5h-224.26c-12.407 0-22.5-10.093-22.5-22.5v-72.878c0-4.142-3.358-7.5-7.5-7.5s-7.5 3.358-7.5 7.5v72.878c0 20.678 16.822 37.5 37.5 37.5h224.26c20.678 0 37.5-16.822 37.5-37.5v-33.166h31.37c20.678 0 37.5-16.822 37.5-37.5v-110.041c0-20.677-16.822-37.5-37.5-37.5zm-229.574-156.665c12.407 0 22.5 10.093 22.5 22.5v110.041c0 12.407-10.093 22.5-22.5 22.5h-30.535c-6.893 0-12.5 5.607-12.5 12.5v8.572l-14.271-16.755c-2.637-3.008-7.396-4.301-11.257-4.316h-78.863c-12.407 0-22.5-10.093-22.5-22.5v-110.042c0-12.407 10.093-22.5 22.5-22.5zm99.17-62.5c0 1.378-1.121 2.5-2.5 2.5h-96.191c-1.378 0-2.5-1.122-2.5-2.5v-22.128h101.191zm-15.493 273.583v71.029c0 9.386 7.636 17.022 17.021 17.022h110.326c9.386 0 17.021-7.636 17.021-17.022v-71.029c0-9.386-7.636-17.022-17.021-17.022h-110.326c-9.386 0-17.021 7.637-17.021 17.022zm37.204 73.051 17.479-23.844 17.008 23.844zm52.91-.002-6.546-9.177 6.832-7.453 14.824 16.631h-15.11zm39.255-73.049v71.029c-.001 2.076-2.487 2.198-4.048 2.022l-25.742-28.88c-2.301-2.583-5.606-4.078-9.07-4.1-3.45-.028-6.793 1.432-9.12 3.979l-6.725 7.337-9.969-13.975c-2.278-3.193-5.979-5.115-9.902-5.141h-.078c-3.894 0-7.586 1.87-9.89 5.012l-26.219 35.767c-1.526.152-3.604-.081-3.606-2.022v-71.029c0-1.115.907-2.022 2.021-2.022h110.326c1.114.001 2.022.909 2.022 2.023z"/></g></svg>