<svg xmlns="http://www.w3.org/2000/svg" viewBox="110 140 370 310.399"><circle cx="286.597" cy="299" r="148" fill="#1895de"/><circle cx="286.597" cy="299" r="109.865" fill="#28b1d5"/><circle cx="286.597" cy="299" r="148" fill="none" stroke="#020129" stroke-linecap="round" stroke-linejoin="round" stroke-width="8"/><path d="M138.586 221.094H368.6v37.812H138.586A18.906 18.906 0 01119.68 240a18.906 18.906 0 0118.906-18.906z" fill="#d7182e"/><path d="M120.538 234.357a18.883 18.883 0 00-.858 5.643 18.906 18.906 0 0018.906 18.906H368.6V247.62H138.586a18.913 18.913 0 01-18.048-13.263z" fill="#890c27" opacity=".93"/><path d="M138.586 221.094A18.906 18.906 0 00119.68 240a18.918 18.918 0 00.47 4.143 18.9 18.9 0 0118.436-14.763H368.6v-8.286z" fill="#ffa663" opacity=".67"/><path d="M138.586 221.094H368.6v37.812h0-230.014A18.906 18.906 0 01119.68 240v0a18.906 18.906 0 0118.906-18.906z" fill="none" stroke="#020129" stroke-linecap="round" stroke-linejoin="round" stroke-width="8"/><path fill="#ffdc7b" d="M368.597 215.387h14.667v49.226h-14.667z"/><path fill="#fff" opacity=".43" d="M368.597 215.302h14.667v11.756h-14.667z"/><path fill="#f48d31" d="M368.597 249.652h14.667v15.046h-14.667z"/><path fill="none" stroke="#020129" stroke-linecap="round" stroke-linejoin="round" stroke-width="8" d="M368.597 215.387h14.667v49.226h-14.667z"/><path fill="#ffdc7b" d="M161.18 215.387h14.667v49.226H161.18z"/><path fill="#fff" opacity=".43" d="M161.18 215.387h14.667v11.756H161.18z"/><path fill="#f48d31" d="M161.18 249.738h14.667v15.046H161.18z"/><path fill="none" stroke="#020129" stroke-linecap="round" stroke-linejoin="round" stroke-width="8" d="M161.18 215.387h14.667v49.226H161.18z"/><path fill="#f48d31" d="M383.32 251.37l30.128 20.538L479.94 240l-66.718-31.908-29.902 20.539v22.739z"/><path fill="#ee6e31" d="M383.32 251.37l30.127 20.538L479.94 240h-96.62v11.37z"/><path fill="#e65331" d="M383.32 244.867l31.277 10.586L479.94 240l-66.492 31.908-30.128-20.538v-6.503z"/><path fill="#ffe085" d="M383.084 235.096l31.277-17.342L471.083 240l-57.871-31.945-30.128 20.538v6.503z"/><path fill="none" stroke="#020129" stroke-linecap="round" stroke-linejoin="round" stroke-width="8" d="M383.32 251.37l30.128 20.538L479.94 240l-66.718-31.908-29.902 20.539v22.739zm97-11.37h-56"/><circle cx="425.165" cy="240" r="8.286" fill="#020129"/><path fill="#ffa183" d="M249.097 306.394h75V437.12h-75z"/><path fill="#f9a991" d="M249.097 306.394h75V437.12h-75z"/><path d="M249.1 341.767a51.986 51.986 0 0023.833 5.766h27.334a51.986 51.986 0 0023.833-5.766v-35.373h-75z" style="mix-blend-mode:multiply" fill="#ffa183" opacity=".58"/><path fill="none" stroke="#020129" stroke-linecap="round" stroke-linejoin="round" stroke-width="8" d="M249.097 306.394h75V437.12h-75z"/><path d="M228.6 228.453h116V295.2a44.333 44.333 0 01-44.333 44.333H272.93A44.333 44.333 0 01228.6 295.2v-66.747z" fill="#f9a991"/><path d="M300.263 325.374H272.93a44.333 44.333 0 01-44.33-44.334v14.16a44.332 44.332 0 0044.333 44.333h27.333A44.333 44.333 0 00344.6 295.2v-14.16a44.334 44.334 0 01-44.337 44.334z" fill="#f98568"/><path d="M228.6 228.453h116V295.2a44.333 44.333 0 01-44.333 44.333H272.93A44.333 44.333 0 01228.6 295.2v-66.747h0z" fill="none" stroke="#020129" stroke-linecap="round" stroke-linejoin="round" stroke-width="8"/><rect x="228.597" y="206.291" width="29" height="61.869" rx="14.5" fill="#f9a991"/><rect x="257.597" y="199.662" width="29" height="68.389" rx="14.5" fill="#f9a991"/><rect x="286.597" y="198.453" width="29" height="69.598" rx="14.5" fill="#f9a991"/><rect x="315.597" y="207.396" width="29" height="58.551" rx="14.5" fill="#f9a991"/><path d="M246.738 253.2h-7.283a10.858 10.858 0 01-10.855-10.864v11.324a14.5 14.5 0 0029 0v-11.324a10.859 10.859 0 01-10.862 10.864z" fill="#f98568"/><path d="M275.738 253.086h-7.283a10.858 10.858 0 01-10.855-10.858v11.323a14.5 14.5 0 0029 0v-11.323a10.858 10.858 0 01-10.862 10.858z" fill="#f98568"/><path d="M304.738 253.086h-7.283a10.858 10.858 0 01-10.855-10.858v11.323a14.5 14.5 0 0029 0v-11.323a10.858 10.858 0 01-10.862 10.858z" style="mix-blend-mode:multiply" fill="#ffa183" opacity=".58"/><path d="M333.738 250.982h-7.283a10.858 10.858 0 01-10.855-10.859v11.323a14.5 14.5 0 1029 0v-11.323a10.859 10.859 0 01-10.862 10.859z" style="mix-blend-mode:multiply" fill="#ffa183" opacity=".58"/><path d="M243.1 206.291a14.5 14.5 0 00-14.5 14.5v9.6a14.5 14.5 0 1129 0v-9.6a14.5 14.5 0 00-14.5-14.5z" fill="#fff" opacity=".43"/><path d="M272.1 199.662a14.5 14.5 0 00-14.5 14.5v9.6a14.5 14.5 0 0129 0v-9.6a14.5 14.5 0 00-14.5-14.5zm29-1.209a14.5 14.5 0 00-14.5 14.5v9.6a14.5 14.5 0 0129 0v-9.6a14.5 14.5 0 00-14.5-14.5zm29 8.947a14.5 14.5 0 00-14.5 14.5v9.6a14.5 14.5 0 0129 0v-9.6a14.5 14.5 0 00-14.5-14.5z" fill="#fff" opacity=".43"/><rect x="228.597" y="206.291" width="29" height="61.869" rx="14.5" fill="none" stroke="#020129" stroke-linecap="round" stroke-linejoin="round" stroke-width="8"/><rect x="257.597" y="199.662" width="29" height="68.389" rx="14.5" fill="none" stroke="#020129" stroke-linecap="round" stroke-linejoin="round" stroke-width="8"/><rect x="286.597" y="198.453" width="29" height="69.598" rx="14.5" fill="none" stroke="#020129" stroke-linecap="round" stroke-linejoin="round" stroke-width="8"/><rect x="315.597" y="207.396" width="29" height="58.551" rx="14.5" fill="none" stroke="#020129" stroke-linecap="round" stroke-linejoin="round" stroke-width="8"/><path d="M324.1 284.453h-25a14.5 14.5 0 01-14.5-14.5 14.5 14.5 0 0114.5-14.5h31a14.5 14.5 0 0114.5 14.5v14.5z" fill="#f9a991"/><path d="M299.1 275.632a14.5 14.5 0 01-13.812-10.09 14.509 14.509 0 00-.565 6.307 14.766 14.766 0 0014.765 12.6h28.652a8.821 8.821 0 00-8.821-8.821z" fill="#f98568"/><path d="M330.1 255.453h-31a14.5 14.5 0 00-13.869 18.732 14.5 14.5 0 0113.869-10.268h31a14.5 14.5 0 0114.5 14.5v-8.464a14.5 14.5 0 00-14.5-14.5z" fill="#fff" opacity=".43"/><path d="M324.1 284.453h-25a14.5 14.5 0 01-14.5-14.5h0a14.5 14.5 0 0114.5-14.5h31a14.5 14.5 0 0114.5 14.5v14.5" fill="none" stroke="#020129" stroke-linecap="round" stroke-linejoin="round" stroke-width="8"/><path d="M295.948 265.542h7.129a4.944 4.944 0 004.971-4.916h0" fill="none" stroke="#0a002d" stroke-linecap="round" stroke-linejoin="round" stroke-width="4.022"/><path d="M235.6 437.977a148.643 148.643 0 00102 0v-66.22h-102z" fill="#2561a1"/><path d="M235.6 437.977a148.643 148.643 0 00102 0v-66.22h-102z" fill="#2561a1"/><path d="M235.6 437.977a148.643 148.643 0 00102 0v-66.22h-102z" fill="#2561a1"/><path d="M235.6 371.757v66.22a147.71 147.71 0 0051 9.023v-75.243z" fill="#1c5393"/><path fill="#a4c7e2" d="M235.597 371.757h102v8.577h-102z"/><path d="M235.6 434.037a5.573 5.573 0 003.806 5.278 148.75 148.75 0 0094.387 0 5.574 5.574 0 003.807-5.278v-62.28h-102z" fill="none" stroke="#020129" stroke-linecap="round" stroke-linejoin="round" stroke-width="8"/><path d="M202.294 287.215a5.063 5.063 0 01-5.063-5.063 3.554 3.554 0 00-3.125-3.6 3.434 3.434 0 00-3.741 3.42v.179a5.063 5.063 0 01-5.063 5.063 3.554 3.554 0 00-3.6 3.125 3.434 3.434 0 003.42 3.741h.178a5.063 5.063 0 015.063 5.063 3.554 3.554 0 003.126 3.6 3.433 3.433 0 003.74-3.42v-.178a5.063 5.063 0 015.063-5.063h.179a3.434 3.434 0 003.419-3.741 3.554 3.554 0 00-3.596-3.126zm82.497-111.904a2.532 2.532 0 01-2.532-2.532 1.776 1.776 0 00-1.562-1.8 1.716 1.716 0 00-1.87 1.71v.089a2.532 2.532 0 01-2.532 2.532 1.777 1.777 0 00-1.8 1.562 1.717 1.717 0 001.71 1.871h.089a2.532 2.532 0 012.532 2.531 1.775 1.775 0 001.562 1.8 1.716 1.716 0 001.87-1.71v-.089a2.532 2.532 0 012.532-2.531h.089a1.717 1.717 0 001.71-1.871 1.777 1.777 0 00-1.798-1.562zm-64.034 204.122a1.444 1.444 0 01-1.444-1.444 1.014 1.014 0 00-.891-1.026.98.98 0 00-1.067.975v.051a1.443 1.443 0 01-1.443 1.444 1.012 1.012 0 00-1.026.891.979.979 0 00.975 1.067h.051a1.443 1.443 0 011.443 1.444 1.014 1.014 0 00.892 1.026.979.979 0 001.066-.975v-.051a1.444 1.444 0 011.444-1.444h.051a.98.98 0 00.975-1.067 1.014 1.014 0 00-1.026-.891zM404.8 328.825a1.087 1.087 0 01-1.087-1.086.763.763 0 00-.671-.772.737.737 0 00-.8.734v.039a1.087 1.087 0 01-1.087 1.086.763.763 0 00-.772.671.737.737 0 00.734.8h.038a1.087 1.087 0 011.087 1.086.762.762 0 00.67.772.737.737 0 00.8-.734v-.038a1.087 1.087 0 011.088-1.083h.038a.737.737 0 00.734-.8.763.763 0 00-.772-.675zm-16.82-46.718a2.773 2.773 0 01-2.773-2.773 1.961 1.961 0 00-1.692-1.984 1.888 1.888 0 00-2.082 1.877v.108a2.773 2.773 0 01-2.772 2.773 1.961 1.961 0 00-1.985 1.692 1.887 1.887 0 001.877 2.081h.108a2.773 2.773 0 012.772 2.773 1.962 1.962 0 001.692 1.985 1.888 1.888 0 002.082-1.877v-.1a2.783 2.783 0 012.782-2.783h.1a1.887 1.887 0 001.877-2.081 1.961 1.961 0 00-1.986-1.691z" fill="#fff"/><path d="M228.236 321.561a1.779 1.779 0 01-1.78-1.779 1.258 1.258 0 00-1.086-1.274 1.211 1.211 0 00-1.336 1.2v.07a1.778 1.778 0 01-1.779 1.779 1.259 1.259 0 00-1.274 1.086 1.212 1.212 0 001.205 1.336h.069a1.779 1.779 0 011.779 1.78 1.258 1.258 0 001.086 1.273 1.211 1.211 0 001.336-1.2v-.063a1.786 1.786 0 011.786-1.786h.063a1.211 1.211 0 001.2-1.336 1.258 1.258 0 00-1.269-1.086zm173.6 47.108a1.78 1.78 0 01-1.78-1.78 1.258 1.258 0 00-1.085-1.274 1.212 1.212 0 00-1.336 1.2v.069a1.78 1.78 0 01-1.78 1.78 1.257 1.257 0 00-1.273 1.085 1.211 1.211 0 001.2 1.336h.069a1.78 1.78 0 011.78 1.78 1.257 1.257 0 001.086 1.273 1.21 1.21 0 001.335-1.2v-.063a1.786 1.786 0 011.786-1.786h.063a1.212 1.212 0 001.205-1.336 1.259 1.259 0 00-1.27-1.084zm-228.663-20.396a2.773 2.773 0 01-2.773-2.773 1.961 1.961 0 00-1.692-1.985 1.887 1.887 0 00-2.081 1.877v.108a2.774 2.774 0 01-2.773 2.773 1.962 1.962 0 00-1.985 1.692 1.887 1.887 0 001.877 2.081h.108a2.774 2.774 0 012.773 2.773 1.962 1.962 0 001.692 1.985 1.887 1.887 0 002.081-1.877v-.1a2.783 2.783 0 012.783-2.783h.1a1.886 1.886 0 001.876-2.081 1.96 1.96 0 00-1.986-1.69z" fill="#174268" opacity=".59"/><path d="M366.227 337.825a3.3 3.3 0 01-3.295-3.3 2.328 2.328 0 00-2.01-2.358 2.241 2.241 0 00-2.473 2.23v.128a3.3 3.3 0 01-3.3 3.3 2.331 2.331 0 00-2.358 2.01 2.242 2.242 0 002.23 2.473h.128a3.3 3.3 0 013.3 3.3 2.329 2.329 0 002.01 2.358 2.242 2.242 0 002.473-2.23v-.116a3.308 3.308 0 013.307-3.307h.116a2.242 2.242 0 002.23-2.473 2.33 2.33 0 00-2.358-2.015z" fill="#fff"/><path style="mix-blend-mode:screen" fill="#331f5b" opacity=".15" d="M199.191 600.399h205.4-205.4zm0 0h205.4-205.4z"/></svg>