<svg id="Capa_1" enable-background="new 0 0 512 512" height="512" viewBox="0 0 512 512" width="512" xmlns="http://www.w3.org/2000/svg"><g><g><path d="m110.537 157.004h197.992v32.325h-197.992z" fill="#d0e2e7"/></g><g><path d="m278.224 157.004h30.305v32.325h-30.305z" fill="#b4d0d5"/></g><g><path d="m76.191 70.13h34.346v171.728h-34.346z" fill="#b1e4f9"/></g><g><path d="m76.191 218.769v23.089h34.346v-35.789c-12.029 2.942-23.535 7.228-34.346 12.7z" fill="#90d8f9"/></g><g><path d="m7.5 7.5h62.63v32.325h-62.63z" fill="#86a0af"/></g><g><path d="m223.675 363.077h135.362v-79.803c0-22.316-18.091-40.406-40.406-40.406h-94.955v120.209z" fill="#b1e4f9"/></g><g><path d="m256.84 242.868h-33.165v120.209h86.874c0-47.681-20.76-90.599-53.709-120.209z" fill="#90d8f9"/></g><g><circle cx="148.923" cy="363.077" fill="#86a0af" r="105.057"/></g><g><g><path d="m148.923 221.654c-78.106 0-141.423 63.318-141.423 141.423s63.317 141.423 141.423 141.423 141.423-63.317 141.423-141.423-63.318-141.423-141.423-141.423zm0 246.48c-58.021 0-105.057-47.036-105.057-105.057s47.035-105.057 105.057-105.057 105.057 47.036 105.057 105.057-47.036 105.057-105.057 105.057z" fill="#d0e2e7"/></g><g><path d="m231.157 248.013c16.59 23.172 26.359 51.561 26.359 82.234 0 10.869-1.23 21.45-3.551 31.615.005.405.015.809.015 1.215 0 58.021-47.036 105.057-105.057 105.057-.406 0-.81-.011-1.215-.015-10.165 2.321-20.746 3.551-31.615 3.551-30.673 0-59.062-9.768-82.234-26.359 25.655 35.834 67.631 59.189 115.064 59.189 78.106 0 141.423-63.317 141.423-141.423 0-47.433-23.355-89.408-59.189-115.064z" fill="#b4d0d5"/></g><g><circle cx="148.923" cy="363.077" fill="#d0e2e7" r="20.203"/></g></g><g><circle cx="424.697" cy="460.053" fill="#d0e2e7" r="44.447"/></g><g><path d="m448.246 422.362c4.276 6.829 6.756 14.897 6.756 23.549 0 24.547-19.9 44.447-44.447 44.447-8.651 0-16.72-2.48-23.549-6.756 7.856 12.548 21.795 20.898 37.691 20.898 24.548 0 44.447-19.9 44.447-44.447 0-15.896-8.35-29.835-20.898-37.691z" fill="#b4d0d5"/></g><g><path d="m413.585 7.5c-50.211 0-90.915 40.704-90.915 90.915 0 26.22 11.104 49.843 28.86 66.435-6.737 14.512-13.708 29.53-13.708 29.53l33.406-15.507c12.65 6.673 27.06 10.456 42.356 10.456 50.211 0 90.915-40.704 90.915-90.915s-40.703-90.914-90.914-90.914z" fill="#f6e781"/></g><g><path d="m483.067 39.789c4.701 11.771 7.29 24.613 7.29 38.061 0 56.706-45.97 102.676-102.676 102.676-5.265 0-10.436-.398-15.487-1.162 12.416 6.362 26.48 9.965 41.391 9.965 50.211 0 90.915-40.704 90.915-90.915 0-22.341-8.064-42.796-21.433-58.625z" fill="#f1cb86"/></g><g><g><path d="m458.924 64.941c-12.501-12.501-32.688-12.614-45.338-.357-12.651-12.257-32.838-12.144-45.338.357-12.624 12.624-12.624 33.091 0 45.715l45.338 45.338 45.338-45.338c12.623-12.624 12.624-33.092 0-45.715z" fill="#dd636e"/></g><g><path d="m458.924 64.941c-6.021-6.021-13.824-9.159-21.71-9.435.885 3.919 1.368 7.991 1.368 12.178 0 30.405-24.648 55.054-55.054 55.054-1.111 0-2.212-.043-3.307-.108l33.364 33.364 45.338-45.338c12.624-12.624 12.625-33.092.001-45.715z" fill="#da4a54"/></g></g><g><circle cx="424.697" cy="460.053" r="12.122"/><path d="m148.923 250.521c-62.064 0-112.557 50.493-112.557 112.557s50.493 112.557 112.557 112.557 112.557-50.493 112.557-112.557c-.001-62.065-50.493-112.557-112.557-112.557zm87.979 154.691-59.989-34.635h69.281c-.941 12.321-4.182 24.008-9.292 34.635zm-185.251-34.635h69.281l-59.989 34.635c-5.109-10.626-8.351-22.314-9.292-34.635zm9.292-49.635 59.989 34.635h-69.281c.941-12.321 4.183-24.008 9.292-34.635zm75.277 42.135c0-7.004 5.699-12.703 12.703-12.703s12.703 5.699 12.703 12.703-5.699 12.703-12.703 12.703-12.703-5.698-12.703-12.703zm20.203-97.271c12.321.941 24.008 4.182 34.635 9.292l-34.635 59.989zm-15 69.281-34.635-59.989c10.626-5.11 22.314-8.351 34.635-9.292zm0 125.262c-12.321-.941-24.008-4.182-34.635-9.292l34.635-59.989zm15-69.281 34.635 59.989c-10.626 5.11-22.314 8.351-34.635 9.292zm20.49-35.491 59.989-34.635c5.11 10.626 8.351 22.313 9.292 34.635zm52.464-47.61-59.964 34.62 34.62-59.964c9.923 6.818 18.526 15.421 25.344 25.344zm-135.565-25.344 34.62 59.964-59.964-34.62c6.819-9.923 15.422-18.526 25.344-25.344zm-25.344 135.565 59.965-34.621-34.621 59.965c-9.922-6.819-18.525-15.422-25.344-25.344zm135.565 25.344-34.62-59.964 59.964 34.62c-6.818 9.922-15.421 18.525-25.344 25.344z"/><path d="m504.5 434.37h-34.677c-8.954-15.671-25.821-26.265-45.126-26.265-1.245 0-2.476.06-3.699.146l-16.491-47.626c-1.046-3.02-3.891-5.046-7.087-5.046h-30.884v-30.116c0-4.142-3.357-7.5-7.5-7.5s-7.5 3.358-7.5 7.5v30.113h-53.879c-2.092-41.963-21.634-79.408-51.502-105.209h72.474c18.145 0 32.906 14.762 32.906 32.907v7.154c0 4.142 3.357 7.5 7.5 7.5s7.5-3.358 7.5-7.5v-7.154c0-26.416-21.49-47.907-47.906-47.907h-32.906v-38.539h22.805c4.143 0 7.5-3.358 7.5-7.5v-32.325c0-4.142-3.357-7.5-7.5-7.5h-116.046c-4.142 0-7.5 3.358-7.5 7.5s3.358 7.5 7.5 7.5h108.546v17.325h-182.991v-17.325h39.463c4.142 0 7.5-3.358 7.5-7.5s-3.358-7.5-7.5-7.5h-39.463v-79.373c0-4.142-3.358-7.5-7.5-7.5h-9.673v-22.805c0-12.904-10.384-23.421-23.234-23.652v-8.673c0-4.142-3.358-7.5-7.5-7.5h-62.63c-4.142 0-7.5 3.358-7.5 7.5v32.325c0 4.142 3.358 7.5 7.5 7.5h62.63c4.142 0 7.5-3.358 7.5-7.5v-8.641c4.577.226 8.234 4.009 8.234 8.641v22.805h-9.673c-4.142 0-7.5 3.358-7.5 7.5v167.533c-41.283 26.503-68.691 72.818-68.691 125.414 0 82.116 66.807 148.923 148.923 148.923 65.738 0 121.656-42.818 141.351-102.026h41.488c4.143 0 7.5-3.358 7.5-7.5v-31.896h19.72c.02 0 .039.003.058.003h33.04l14.17 40.922c-19.561 7.458-33.5 26.402-33.5 48.551 0 28.644 23.304 51.947 51.947 51.947s51.947-23.303 51.947-51.947c0-3.661-.386-7.233-1.11-10.683h28.966c4.143 0 7.5-3.358 7.5-7.5s-3.357-7.501-7.5-7.501zm-441.87-402.045h-47.63v-17.325h47.63zm208.094 164.504v38.539h-45.275c-22.379-13.46-48.563-21.213-76.526-21.213-10.588 0-20.918 1.119-30.886 3.23v-20.555h152.687zm-187.033-119.199h19.346v143.768c-6.665 2.164-13.127 4.782-19.346 7.825zm65.232 419.37c-73.845 0-133.923-60.078-133.923-133.923s60.078-133.923 133.923-133.923 133.923 60.078 133.923 133.923-60.078 133.923-133.923 133.923zm175.339-102.026h-29.866c1.735-7.918 2.847-16.067 3.262-24.396h26.604zm100.435 102.026c-20.373 0-36.947-16.575-36.947-36.947s16.574-36.947 36.947-36.947 36.947 16.575 36.947 36.947-16.574 36.947-36.947 36.947z"/><path d="m331.021 191.222c-1.325 2.856-.727 6.235 1.499 8.461 1.438 1.438 3.357 2.197 5.306 2.197 1.068 0 2.145-.228 3.156-.697l30.119-13.981c13.185 6.309 27.792 9.628 42.484 9.628 9.276 0 18.459-1.291 27.294-3.835 3.98-1.147 6.277-5.303 5.131-9.283-1.147-3.981-5.305-6.279-9.283-5.131-7.484 2.156-15.271 3.25-23.142 3.25-13.527 0-26.964-3.316-38.857-9.59-2.07-1.092-4.532-1.154-6.657-.169l-14.814 6.877 5.078-10.939c1.365-2.94.687-6.424-1.682-8.638-17.077-15.957-26.481-37.605-26.481-60.956-.001-45.997 37.418-83.416 83.413-83.416s83.415 37.419 83.415 83.415c0 25.626-11.532 49.467-31.641 65.407-3.246 2.573-3.791 7.291-1.218 10.537 2.572 3.246 7.29 3.791 10.536 1.218 23.719-18.804 37.323-46.928 37.323-77.162 0-54.267-44.148-98.415-98.415-98.415-54.266 0-98.414 44.148-98.414 98.415 0 25.32 9.901 49.823 27.338 68.059z"/><path d="m464.228 59.638c-13.666-13.665-35.151-15.268-50.643-4.699-15.489-10.569-36.978-8.966-50.641 4.699-7.522 7.521-11.665 17.522-11.665 28.16s4.143 20.639 11.664 28.161l45.338 45.339c1.407 1.407 3.314 2.197 5.304 2.197s3.896-.79 5.304-2.197l45.338-45.339c7.522-7.521 11.665-17.522 11.665-28.161 0-10.638-4.143-20.639-11.664-28.16zm-10.608 45.714-40.035 40.036-40.035-40.036c-4.688-4.689-7.271-10.923-7.271-17.554s2.582-12.865 7.271-17.554c4.813-4.813 11.179-7.224 17.55-7.224 6.238 0 12.48 2.313 17.266 6.95 2.907 2.817 7.528 2.819 10.438 0 9.674-9.371 25.293-9.25 34.816.274h.001c4.688 4.689 7.271 10.923 7.271 17.554s-2.582 12.865-7.272 17.554z"/></g></g></svg>