<?xml version="1.0" encoding="UTF-8" standalone="no"?>
<!DOCTYPE svg PUBLIC "-//W3C//DTD SVG 1.1//EN" "http://www.w3.org/Graphics/SVG/1.1/DTD/svg11.dtd">
<svg version="1.1" xmlns="http://www.w3.org/2000/svg" xmlns:xlink="http://www.w3.org/1999/xlink" preserveAspectRatio="xMidYMid meet" viewBox="0 0 640 640" width="640" height="640"><defs><path d="M409.24 85.79C352.84 85.79 304.09 118.54 280.95 166.05C267.83 160.31 253.35 157.1 238.11 157.1C179.04 157.1 131.15 204.99 131.15 264.06C131.15 323.13 179.04 371.01 238.11 371.01C269.48 371.01 520.47 371.01 551.85 371.01C591.23 371.01 623.15 339.09 623.15 299.71C623.15 260.33 591.23 228.4 551.85 228.4C551.85 149.64 488 85.79 409.24 85.79Z" id="a2z6kZlhKz"></path><path d="M409.24 75.79C380.07 75.79 351.72 84.05 327.24 99.68C306.04 113.21 288.56 131.7 276.26 153.48C264.02 149.24 251.22 147.1 238.11 147.1C173.62 147.1 121.15 199.57 121.15 264.06C121.15 328.55 173.62 381.01 238.11 381.01C258.45 381.01 421.16 381.01 441.49 381.01C447.02 381.01 451.49 376.54 451.49 371.01C451.49 365.49 447.02 361.01 441.49 361.01C421.16 361.01 258.45 361.01 238.11 361.01C184.65 361.01 141.15 317.52 141.15 264.06C141.15 210.59 184.65 167.1 238.11 167.1C251.58 167.1 264.65 169.83 276.94 175.21C276.94 175.21 276.95 175.21 276.95 175.21C301.44 185.95 320.59 206.55 329.49 231.73C330.94 235.84 334.8 238.4 338.92 238.4C340.03 238.4 341.15 238.22 342.25 237.83C347.46 235.99 350.19 230.27 348.35 225.07C338.81 198.08 319.51 175.47 294.61 161.68C318.34 120.8 361.4 95.79 409.24 95.79C479.22 95.79 536.71 150.29 541.52 219.07C529.5 220.6 517.99 224.77 507.75 231.39C503.11 234.39 501.79 240.58 504.79 245.22C506.7 248.17 509.91 249.79 513.19 249.79C515.05 249.79 516.93 249.27 518.61 248.18C528.51 241.78 540 238.4 551.85 238.4C585.65 238.4 613.15 265.9 613.15 299.71C613.15 333.51 585.65 361.01 551.85 361.01C548.81 361.01 524.53 361.01 521.49 361.01C515.97 361.01 511.49 365.49 511.49 371.01C511.49 376.54 515.97 381.01 521.49 381.01C524.53 381.01 548.81 381.01 551.85 381.01C596.68 381.01 633.15 344.54 633.15 299.71C633.15 258.16 601.83 223.8 561.56 218.98C556.68 139.2 490.23 75.79 409.24 75.79Z" id="g6cwdHdLMq"></path><path d="M481.49 361.01C475.97 361.01 471.49 365.49 471.49 371.01C471.49 376.54 475.97 381.01 481.49 381.01C487.02 381.01 491.49 376.54 491.49 371.01C491.49 365.49 487.02 361.01 481.49 361.01Z" id="f1HnAhlJnE"></path><path d="M288.09 113.39C231.69 113.39 182.94 146.14 159.8 193.65C146.68 187.9 132.2 184.7 116.96 184.7C57.89 184.7 10 232.58 10 291.65C10 350.72 57.89 398.61 116.96 398.61C148.33 398.61 399.32 398.61 430.69 398.61C470.07 398.61 502 366.69 502 327.3C502 287.92 470.08 256 430.7 256C430.7 177.24 366.85 113.39 288.09 113.39Z" id="cbEqcsiFG"></path><path d="M288.09 103.39C258.92 103.39 230.57 111.65 206.09 127.27C184.88 140.81 167.4 159.29 155.11 181.08C142.86 176.84 130.07 174.7 116.96 174.7C52.47 174.7 0 227.16 0 291.65C0 356.14 52.47 408.61 116.96 408.61C137.29 408.61 300 408.61 320.34 408.61C325.86 408.61 330.34 404.13 330.34 398.61C330.34 393.09 325.86 388.61 320.34 388.61C300 388.61 137.29 388.61 116.96 388.61C63.49 388.61 20 345.11 20 291.65C20 238.19 63.49 194.7 116.96 194.7C130.43 194.7 143.49 197.43 155.79 202.81C155.79 202.81 155.79 202.81 155.79 202.81C180.29 213.55 199.44 234.15 208.34 259.33C209.79 263.44 213.65 266 217.77 266C218.87 266 220 265.82 221.1 265.43C226.31 263.59 229.04 257.87 227.2 252.66C217.66 225.68 198.36 203.07 173.46 189.27C197.18 148.39 240.25 123.39 288.09 123.39C358.07 123.39 415.56 177.88 420.36 246.66C408.35 248.19 396.83 252.37 386.6 258.99C381.96 261.98 380.63 268.17 383.63 272.81C385.55 275.77 388.76 277.38 392.04 277.38C393.9 277.38 395.78 276.86 397.46 275.78C407.36 269.38 418.85 266 430.7 266C464.5 266 492 293.5 492 327.3C492 361.11 464.5 388.61 430.7 388.61C427.66 388.61 403.38 388.61 400.34 388.61C394.82 388.61 390.34 393.09 390.34 398.61C390.34 404.13 394.82 408.61 400.34 408.61C403.38 408.61 427.66 408.61 430.7 408.61C475.53 408.61 512 372.14 512 327.3C512 285.76 480.68 251.39 440.41 246.58C435.53 166.8 369.07 103.39 288.09 103.39Z" id="b1vcHFFghk"></path><path d="M360.34 388.61C354.82 388.61 350.34 393.09 350.34 398.61C350.34 404.13 354.82 408.61 360.34 408.61C365.86 408.61 370.34 404.13 370.34 398.61C370.34 393.09 365.86 388.61 360.34 388.61Z" id="aKtKmJ1G"></path></defs><g><g><g><use xlink:href="#a2z6kZlhKz" opacity="1" fill="#5c636b" fill-opacity="1"></use><g><use xlink:href="#a2z6kZlhKz" opacity="1" fill-opacity="0" stroke="#000000" stroke-width="1" stroke-opacity="0"></use></g></g><g><use xlink:href="#g6cwdHdLMq" opacity="1" fill="#000000" fill-opacity="1"></use><g><use xlink:href="#g6cwdHdLMq" opacity="1" fill-opacity="0" stroke="#000000" stroke-width="1" stroke-opacity="0"></use></g></g><g><use xlink:href="#f1HnAhlJnE" opacity="1" fill="#000000" fill-opacity="1"></use><g><use xlink:href="#f1HnAhlJnE" opacity="1" fill-opacity="0" stroke="#000000" stroke-width="1" stroke-opacity="0"></use></g></g><g><use xlink:href="#cbEqcsiFG" opacity="1" fill="#a0c8ff" fill-opacity="1"></use><g><use xlink:href="#cbEqcsiFG" opacity="1" fill-opacity="0" stroke="#000000" stroke-width="1" stroke-opacity="0"></use></g></g><g><use xlink:href="#b1vcHFFghk" opacity="1" fill="#000000" fill-opacity="1"></use><g><use xlink:href="#b1vcHFFghk" opacity="1" fill-opacity="0" stroke="#000000" stroke-width="1" stroke-opacity="0"></use></g></g><g><use xlink:href="#aKtKmJ1G" opacity="1" fill="#000000" fill-opacity="1"></use><g><use xlink:href="#aKtKmJ1G" opacity="1" fill-opacity="0" stroke="#000000" stroke-width="1" stroke-opacity="0"></use></g></g></g></g></svg>